<svg width="246" height="247" viewBox="0 0 246 247" fill="none" xmlns="http://www.w3.org/2000/svg">
<path d="M114.449 0.949058C95.2244 2.73801 80.6212 6.93278 65.2786 15.0756C54.3107 20.8126 46.7318 26.4261 37.2428 35.6793C27.569 44.9942 20.4214 54.4941 14.3829 66.0298C-4.10219 100.945 -4.77998 142.091 12.4112 177.253C47.5945 248.996 140.266 269.045 201.144 218.029C214.885 206.555 225.051 193.662 232.815 177.87C264.486 113.283 234.602 35.9261 167.686 9.27692C151.358 2.73801 130.161 -0.593139 114.449 0.949058ZM143.717 14.7055C185.678 23.095 219.629 55.0493 229.919 95.825C232.692 106.929 233.555 115.01 233.185 126.977C232.692 144.558 229.488 157.204 221.663 172.935C215.871 184.594 210.695 191.626 200.713 201.62C191.1 211.243 184.015 216.548 172.985 222.223C155.732 231.106 138.973 234.808 118.885 234.129C106.87 233.759 98.5517 232.279 87.7688 228.701C56.4057 218.214 31.266 194.032 19.189 162.756C12.0415 144.127 10.2546 120.932 14.3829 100.452C15.8617 93.1724 19.8052 82.0686 23.5638 74.481C29.7255 62.1434 35.9489 53.8156 47.0399 43.1436C63.3684 27.4132 84.0717 17.2963 107.24 13.7801C115.866 12.4847 134.967 12.9165 143.717 14.7055Z" fill="#FAFAFA"/>
<path d="M91.6522 52.952C90.9744 53.6305 90.4199 54.5558 90.4199 55.0493C90.4199 56.3448 85.6754 61.0331 81.4238 63.9324C79.3288 65.2895 76.8641 67.3869 75.9399 68.4973C73.4136 71.4583 71.257 76.5167 70.8873 80.2797C70.5792 83.5491 70.5792 83.6108 73.1671 85.7082C74.5843 86.8803 76.4944 88.6075 77.3571 89.6562C82.2864 95.2082 87.6471 98.9094 92.4532 100.081C93.932 100.452 94.1785 100.328 93.8704 99.4029C91.2825 90.7666 91.8987 84.6595 95.8422 80.0329C98.3685 77.0719 97.9988 76.3317 93.624 75.8998C91.529 75.7148 89.9886 75.9615 88.5098 76.7018L86.4148 77.7505L88.3249 75.9615C89.3724 74.9745 90.4815 73.0622 90.9128 71.4583C91.2825 69.9161 92.1452 66.7084 92.7613 64.3642C93.6856 60.7246 94.0553 60.0461 95.0412 60.2311C95.7189 60.3545 97.0129 60.4779 97.9988 60.4779C99.7857 60.5396 99.9705 60.7863 99.0463 62.2051C98.6149 62.822 98.3069 62.9454 97.9988 62.4519C97.4442 61.7116 94.7331 60.1694 94.425 60.4779C94.3634 60.6013 94.1169 61.2181 93.8704 61.9584C93.4391 63.4389 94.1169 64.1791 97.0129 65.1662C99.2927 65.9064 99.724 65.5363 100.895 61.8967C101.326 60.5396 101.881 59.1824 102.189 58.8123C102.99 58.0104 102.867 58.5656 101.819 61.5883C101.326 63.0688 101.018 64.3642 101.141 64.5493C101.757 65.1662 102.62 63.9324 103.359 61.2798C103.791 59.7376 104.407 58.3188 104.653 58.1337C105.393 57.7019 105.331 57.9487 104.284 60.9714C103.668 62.6986 103.606 63.4389 104.099 63.3155C104.961 63.0071 106.564 58.5656 106.317 57.0234C106.194 56.2214 104.592 55.3578 100.34 53.8156C93.624 51.3481 93.2543 51.3481 91.6522 52.952Z" fill="#FAFAFA"/>
<path d="M144.826 54.3091C141.191 55.6662 139.712 56.5298 139.712 57.2701C139.712 58.874 141.622 64.0558 142.238 64.0558C142.978 64.0558 142.978 64.0558 141.869 60.9714C141.376 59.4909 141.068 58.1954 141.253 58.0103C141.376 57.8253 141.684 58.2571 141.93 58.874C142.177 59.4909 142.916 61.2798 143.532 62.822C145.011 66.0915 145.751 65.2278 144.395 61.8967C143.286 59.2441 143.224 59.1207 143.902 59.1207C144.21 59.1207 144.888 60.6629 145.504 62.5136C146.059 64.3642 146.736 65.9064 146.921 65.9064C147.106 65.9064 148.339 65.5979 149.632 65.1661C151.666 64.6109 152.036 64.2408 152.036 62.6986C152.036 60.6629 150.742 60.4162 149.016 62.1434C147.722 63.4389 147.106 63.2538 147.106 61.6499C147.106 61.033 147.661 60.6629 148.523 60.6629C149.263 60.6012 150.495 60.4162 151.173 60.1694C152.405 59.7376 152.59 60.1077 153.884 65.4129C155.794 73.1239 156.78 75.468 158.567 76.3933C159.368 76.8251 159.923 77.3186 159.799 77.442C159.738 77.5654 158.813 77.2569 157.828 76.7018C154.747 75.0979 149.386 75.8381 148.523 77.9355C148.339 78.4907 148.708 79.5394 149.448 80.2797C152.59 83.6725 153.576 90.5815 151.727 97.3055L150.865 100.575L152.96 100.267C157.211 99.5879 162.141 96.6269 166.516 92.1237C168.919 89.7179 171.876 86.9419 173.17 85.9549C175.08 84.5361 175.45 83.9192 175.45 82.0069C175.45 79.6628 174.156 74.9128 172.985 72.6304C171.691 70.2245 167.255 65.783 163.743 63.4389C160.046 60.9097 156.657 57.3935 154.993 54.3091C153.638 51.7799 151.666 51.7799 144.826 54.3091Z" fill="#FAFAFA"/>
<path d="M100.772 78.8609C94.7947 82.1303 93.3159 89.4712 96.6432 99.3413C99.4776 107.978 107.919 118.218 117.655 124.942L122.338 128.211L126.836 125.003C132.874 120.747 140.206 113.344 143.657 107.978C149.449 99.0945 151.297 88.3608 148.032 82.8089C143.719 75.468 133.305 76.1466 125.295 84.3511L122.214 87.4355L120.243 85.0914C119.133 83.7959 116.669 81.6985 114.82 80.4031C111.863 78.3674 110.877 78.0589 107.241 77.8122C103.914 77.6271 102.62 77.8739 100.772 78.8609Z" fill="#FAFAFA"/>
<path d="M52.0943 154.799C51.1701 155.169 50.2458 156.094 49.9377 156.896C49.6913 157.698 48.4589 158.993 47.2882 159.795L45.1316 161.276L44.9468 178.178C44.8235 195.513 45.07 197.795 47.0418 195.204C47.7195 194.217 47.9044 190.948 47.9044 178.425C47.9044 169.85 48.1509 162.695 48.4589 162.51C48.767 162.325 49.1367 164.237 49.26 166.766C49.568 173.182 50.4923 174.107 57.1469 174.354C63.247 174.662 65.1571 174.23 65.1571 172.626C65.1571 171.516 64.7258 171.393 59.6732 171.393C52.7721 171.393 52.0943 170.899 52.3408 165.902L52.5257 162.448L65.1571 162.263C77.7886 162.139 79.021 161.893 78.2816 159.857C78.0351 159.24 75.3239 159.055 65.4036 159.055C54.0045 159.055 50.9852 158.685 53.8196 157.575C54.3742 157.389 60.0429 157.204 66.3895 157.204C78.0967 157.204 79.6371 156.896 78.0967 155.045C77.4805 154.305 75.1391 154.12 65.5268 154.182C59.0571 154.182 53.0186 154.49 52.0943 154.799Z" fill="#FAFAFA"/>
<path d="M85.5496 154.922C83.4547 155.971 82.9617 158.253 83.1466 166.766C83.2698 175.526 83.4547 176.328 84.8719 176.328C86.5355 176.328 86.7204 175.156 86.7204 165.779C86.7204 160.474 86.9668 157.204 87.3365 157.204C87.7062 157.204 87.9527 163.867 87.9527 175.958C87.9527 191.626 88.0759 194.834 88.877 195.451C89.3699 195.821 90.0477 196.006 90.4174 195.759C91.4033 195.142 91.28 157.143 90.2942 155.847C89.1234 154.428 87.2133 154.058 85.5496 154.922Z" fill="#FAFAFA"/>
<path d="M96.5814 155.045C96.2117 155.539 96.0269 156.217 96.2734 156.587C96.5198 156.958 103.051 157.204 115.375 157.204C130.656 157.204 134.106 157.081 134.353 156.341C135.154 154.305 133.49 154.12 115.313 154.12C100.34 154.12 97.1976 154.243 96.5814 155.045Z" fill="#FAFAFA"/>
<path d="M176.497 154.49C176.25 154.737 176.066 158.253 176.066 162.263V169.542H168.671H161.216L161.401 174.909L161.586 180.337L168.671 180.646L175.757 180.954L176.066 188.357L176.374 195.759H181.303H186.232L186.54 188.357L186.848 180.954L194.119 180.769L201.328 180.584V175.094V169.604L194.119 169.419L186.848 169.233L186.54 161.831L186.232 154.428L181.611 154.243C179.023 154.182 176.743 154.243 176.497 154.49Z" fill="#FAFAFA"/>
<path d="M96.1481 160.042C95.532 161.708 96.7643 162.078 103.974 162.263L111.059 162.448L111.244 178.795C111.368 195.204 111.552 196.438 113.647 195.636C114.264 195.389 114.448 191.996 114.448 178.672V162.078L112.908 160.597C111.491 159.117 111.059 159.055 103.974 159.055C97.8118 159.055 96.4562 159.24 96.1481 160.042Z" fill="#FAFAFA"/>
<path d="M117.901 160.35L116.299 161.584V178.487C116.299 195.513 116.484 197.055 118.455 195.451C119.195 194.834 119.38 191.688 119.503 178.548L119.688 162.448L126.897 162.263C132.689 162.139 134.106 161.893 134.414 161.152C134.599 160.597 134.661 159.919 134.414 159.61C134.229 159.302 130.84 159.055 126.835 159.055C120.366 159.055 119.38 159.178 117.901 160.35Z" fill="#FAFAFA"/>
<path d="M53.5084 176.328C49.8114 177.191 49.4417 177.993 49.2568 186.691C49.072 193.23 49.1952 194.772 49.9963 195.389C51.7831 196.87 52.2145 195.513 52.2145 188.357C52.2145 184.532 52.3993 180.954 52.5842 180.399C52.8923 179.597 54.0014 179.412 58.3762 179.412C62.6894 179.412 64.0449 179.165 64.846 178.363C65.8318 177.376 65.8318 177.315 64.7843 176.513C63.552 175.649 56.959 175.526 53.5084 176.328Z" fill="#FAFAFA"/>
<path d="M122.227 200.055C122.2 200 122.2 199.909 122.227 199.781C122.246 199.654 122.268 199.59 122.296 199.59C122.405 199.59 122.565 199.562 122.774 199.508C122.984 199.444 123.184 199.362 123.376 199.262C123.567 199.152 123.681 199.034 123.718 198.906L123.8 198.619L125.454 192.262C125.49 192.116 125.513 192.002 125.522 191.92C125.54 191.838 125.55 191.788 125.55 191.77C125.55 191.688 125.495 191.624 125.386 191.578C125.276 191.523 125.149 191.482 125.003 191.455C124.866 191.428 124.748 191.414 124.647 191.414C124.638 191.414 124.634 191.382 124.634 191.318C124.634 191.145 124.67 191.022 124.743 190.949C125.126 190.967 125.436 190.981 125.673 190.99C125.919 190.999 126.092 191.004 126.192 191.004C126.292 191.004 126.457 190.999 126.684 190.99C126.912 190.981 127.199 190.967 127.546 190.949C127.573 191.223 127.641 191.642 127.751 192.207C127.805 192.499 127.869 192.854 127.942 193.273C128.015 193.693 128.093 194.13 128.175 194.586C128.266 195.033 128.348 195.456 128.421 195.857C128.494 196.258 128.557 196.591 128.612 196.855C128.612 196.865 128.621 196.869 128.639 196.869C128.658 196.869 128.667 196.86 128.667 196.842L130.95 192.535L131.688 190.949C131.834 190.967 132.016 190.981 132.235 190.99C132.454 190.999 132.705 191.004 132.987 191.004C133.087 191.004 133.247 190.999 133.466 190.99C133.684 190.981 133.967 190.967 134.313 190.949C134.313 191.259 134.281 191.414 134.218 191.414C133.917 191.414 133.698 191.492 133.561 191.646C133.415 191.82 133.306 192.216 133.233 192.836C133.151 193.538 133.074 194.249 133.001 194.969C132.928 195.68 132.86 196.336 132.796 196.938C132.741 197.539 132.695 198.031 132.659 198.414C132.632 198.797 132.618 199.016 132.618 199.07C132.618 199.189 132.664 199.289 132.755 199.371C132.846 199.444 132.946 199.499 133.055 199.535C133.174 199.572 133.27 199.59 133.343 199.59C133.361 199.59 133.37 199.613 133.37 199.658C133.37 199.85 133.338 199.982 133.274 200.055L132.604 200.014C132.404 199.995 132.221 199.982 132.057 199.973C131.902 199.964 131.77 199.959 131.661 199.959C131.542 199.959 131.397 199.964 131.223 199.973C131.059 199.982 130.859 199.995 130.622 200.014L129.815 200.055C129.797 200 129.788 199.95 129.788 199.904C129.788 199.859 129.797 199.795 129.815 199.713C129.843 199.631 129.865 199.59 129.884 199.59C129.947 199.59 130.039 199.572 130.157 199.535C130.276 199.49 130.394 199.439 130.513 199.385C130.631 199.321 130.708 199.262 130.745 199.207C130.836 199.052 130.891 198.902 130.909 198.756C130.936 198.601 130.968 198.355 131.005 198.018L131.374 194.504C131.383 194.422 131.388 194.326 131.388 194.217C131.397 194.107 131.401 193.984 131.401 193.848C131.401 193.747 131.383 193.697 131.346 193.697C131.328 193.697 131.301 193.729 131.264 193.793L128.12 199.576C128.074 199.658 127.988 199.754 127.86 199.863C127.742 199.973 127.632 200.027 127.532 200.027L127.423 200L126.151 193.438C126.142 193.401 126.128 193.383 126.11 193.383C126.092 193.383 126.074 193.406 126.055 193.451C125.645 194.919 125.322 196.094 125.085 196.979C124.857 197.854 124.711 198.437 124.647 198.729C124.62 198.865 124.606 198.97 124.606 199.043C124.606 199.125 124.684 199.207 124.839 199.289C125.003 199.371 125.176 199.444 125.358 199.508C125.55 199.562 125.677 199.59 125.741 199.59C125.759 199.59 125.768 199.617 125.768 199.672C125.768 199.845 125.741 199.973 125.686 200.055C125.559 200.046 125.376 200.032 125.139 200.014C124.912 200.005 124.684 199.995 124.456 199.986C124.228 199.968 124.055 199.959 123.936 199.959C123.79 199.959 123.595 199.968 123.348 199.986C123.102 199.995 122.87 200.005 122.651 200.014C122.442 200.032 122.3 200.046 122.227 200.055ZM132.732 200.055C132.723 200.046 132.718 200.009 132.718 199.945C132.718 199.708 132.741 199.59 132.786 199.59C132.85 199.59 132.964 199.558 133.128 199.494C133.292 199.43 133.456 199.357 133.62 199.275C133.784 199.184 133.894 199.102 133.949 199.029C134.031 198.902 134.208 198.615 134.482 198.168L138.529 191.441C138.547 191.405 138.574 191.368 138.611 191.332C138.647 191.286 138.684 191.236 138.72 191.182C138.866 190.981 138.993 190.881 139.103 190.881C139.185 190.881 139.24 190.917 139.267 190.99L140.702 198.072C140.721 198.191 140.743 198.337 140.771 198.51C140.807 198.674 140.848 198.87 140.894 199.098C140.912 199.189 140.971 199.275 141.072 199.357C141.181 199.43 141.299 199.49 141.427 199.535C141.555 199.572 141.65 199.59 141.714 199.59C141.732 199.59 141.741 199.613 141.741 199.658C141.741 199.85 141.71 199.982 141.646 200.055L140.962 200.014C140.743 199.995 140.552 199.982 140.388 199.973C140.224 199.964 140.087 199.959 139.978 199.959C139.887 199.959 139.682 199.968 139.363 199.986C139.053 199.995 138.629 200.018 138.091 200.055C138.082 200.046 138.077 200.014 138.077 199.959C138.077 199.795 138.1 199.686 138.146 199.631C138.191 199.576 138.251 199.544 138.324 199.535C138.406 199.517 138.492 199.499 138.583 199.48C138.674 199.453 138.761 199.389 138.843 199.289C138.889 199.243 138.916 199.202 138.925 199.166C138.943 199.13 138.952 199.093 138.952 199.057C138.952 199.011 138.925 198.833 138.87 198.523C138.825 198.204 138.752 197.753 138.652 197.17C138.652 197.133 138.624 197.115 138.57 197.115C138.406 197.106 138.219 197.102 138.009 197.102C137.809 197.092 137.581 197.088 137.325 197.088C137.088 197.088 136.874 197.088 136.683 197.088C136.491 197.088 136.318 197.092 136.163 197.102C136.136 197.102 136.09 197.111 136.027 197.129C135.972 197.147 135.94 197.161 135.931 197.17L135.316 198.209C134.951 198.756 134.819 199.125 134.919 199.316C135.029 199.499 135.307 199.59 135.753 199.59C135.771 199.59 135.781 199.608 135.781 199.645C135.781 199.809 135.758 199.945 135.712 200.055C135.676 200.046 135.557 200.032 135.357 200.014C135.165 200.005 134.965 199.995 134.755 199.986C134.555 199.968 134.418 199.959 134.345 199.959C134.29 199.959 134.185 199.964 134.031 199.973C133.885 199.982 133.721 199.991 133.538 200C133.356 200.009 133.192 200.018 133.046 200.027C132.891 200.046 132.786 200.055 132.732 200.055ZM137.49 196.268C137.663 196.268 137.827 196.268 137.982 196.268C138.137 196.258 138.278 196.249 138.406 196.24C138.442 196.24 138.46 196.217 138.46 196.172L138.023 193.738L136.546 196.172C136.537 196.181 136.533 196.195 136.533 196.213C136.542 196.222 136.551 196.227 136.56 196.227C136.806 196.254 137.116 196.268 137.49 196.268ZM145.232 200.096C144.439 200.096 143.747 199.941 143.154 199.631C142.571 199.312 142.115 198.879 141.787 198.332C141.468 197.776 141.308 197.152 141.308 196.459C141.308 195.721 141.454 195.019 141.746 194.354C142.047 193.679 142.443 193.082 142.935 192.562C143.437 192.043 143.997 191.633 144.617 191.332C145.237 191.031 145.866 190.881 146.504 190.881C147.415 190.881 148.358 191.013 149.334 191.277C149.334 191.332 149.325 191.46 149.306 191.66C149.297 191.861 149.284 192.084 149.265 192.33C149.256 192.567 149.243 192.781 149.224 192.973C149.206 193.164 149.197 193.273 149.197 193.301C149.179 193.365 149.129 193.415 149.047 193.451C148.974 193.488 148.896 193.506 148.814 193.506L148.623 193.465C148.459 192.253 147.725 191.646 146.422 191.646C145.902 191.646 145.446 191.801 145.054 192.111C144.672 192.412 144.348 192.813 144.084 193.314C143.819 193.807 143.619 194.344 143.482 194.928C143.355 195.511 143.291 196.076 143.291 196.623C143.291 197.443 143.459 198.104 143.797 198.605C144.143 199.107 144.653 199.357 145.328 199.357C145.711 199.357 146.089 199.312 146.463 199.221C146.836 199.13 147.128 199.011 147.338 198.865C147.383 198.829 147.452 198.751 147.543 198.633C147.634 198.505 147.73 198.373 147.83 198.236C147.93 198.09 148.012 197.967 148.076 197.867C148.149 197.758 148.19 197.703 148.199 197.703C148.436 197.703 148.568 197.762 148.595 197.881C148.586 197.945 148.559 198.054 148.513 198.209C148.468 198.355 148.413 198.514 148.349 198.688C148.295 198.861 148.24 199.016 148.185 199.152C148.131 199.289 148.085 199.371 148.049 199.398C147.529 199.863 146.59 200.096 145.232 200.096ZM155.969 200.082C155.468 200.082 154.98 199.986 154.506 199.795C154.032 199.604 153.663 199.257 153.399 198.756C153.344 198.665 153.257 198.496 153.139 198.25C153.02 197.995 152.893 197.721 152.756 197.43C152.619 197.138 152.487 196.874 152.36 196.637C152.232 196.4 152.136 196.249 152.073 196.186C151.945 196.058 151.799 195.994 151.635 195.994C151.517 195.994 151.444 196.067 151.416 196.213L151.047 198.1C151.002 198.337 150.965 198.546 150.938 198.729C150.92 198.911 150.91 199.066 150.91 199.193C150.91 199.248 150.951 199.307 151.033 199.371C151.125 199.435 151.22 199.49 151.321 199.535C151.43 199.572 151.512 199.59 151.567 199.59C151.585 199.59 151.594 199.613 151.594 199.658C151.594 199.831 151.562 199.964 151.498 200.055C151.371 200.046 151.188 200.032 150.951 200.014C150.724 200.005 150.496 199.995 150.268 199.986C150.049 199.968 149.88 199.959 149.762 199.959C149.616 199.959 149.42 199.968 149.174 199.986C148.928 199.995 148.696 200.005 148.477 200.014C148.258 200.032 148.112 200.046 148.039 200.055C148.03 200.046 148.026 200.018 148.026 199.973C148.026 199.909 148.035 199.831 148.053 199.74C148.071 199.64 148.089 199.59 148.108 199.59C148.208 199.59 148.354 199.562 148.545 199.508C148.746 199.444 148.869 199.371 148.914 199.289C148.987 199.171 149.051 199.016 149.106 198.824C149.16 198.633 149.211 198.41 149.256 198.154L150.295 192.85C150.341 192.613 150.373 192.417 150.391 192.262C150.409 192.098 150.418 191.97 150.418 191.879C150.418 191.742 150.332 191.633 150.158 191.551C149.994 191.46 149.858 191.414 149.748 191.414C149.73 191.414 149.721 191.391 149.721 191.346C149.721 191.282 149.735 191.204 149.762 191.113C149.789 191.022 149.812 190.967 149.83 190.949C150.313 190.967 150.696 190.986 150.979 191.004C151.27 191.013 151.466 191.018 151.567 191.018C151.831 191.018 152.127 191.008 152.455 190.99C152.793 190.963 153.093 190.949 153.358 190.949C153.74 190.949 154.128 191.018 154.52 191.154C154.912 191.282 155.24 191.487 155.504 191.77C155.768 192.052 155.901 192.412 155.901 192.85C155.901 193.223 155.809 193.606 155.627 193.998C155.445 194.381 155.199 194.723 154.889 195.023C154.579 195.324 154.233 195.538 153.85 195.666C153.804 195.684 153.795 195.73 153.823 195.803C154.032 196.441 154.26 197.006 154.506 197.498C154.761 197.99 155.03 198.414 155.313 198.77C155.75 199.326 156.179 199.604 156.598 199.604C156.598 199.777 156.552 199.927 156.461 200.055C156.397 200.064 156.324 200.068 156.242 200.068C156.16 200.077 156.069 200.082 155.969 200.082ZM152.524 195.242C152.715 195.242 152.897 195.156 153.071 194.982C153.244 194.8 153.394 194.581 153.522 194.326C153.649 194.062 153.75 193.793 153.823 193.52C153.895 193.246 153.932 193.014 153.932 192.822C153.932 192.075 153.613 191.701 152.975 191.701C152.856 191.701 152.742 191.706 152.633 191.715C152.533 191.724 152.46 191.738 152.414 191.756C152.314 191.801 152.25 191.897 152.223 192.043L151.676 194.873C151.676 194.882 151.671 194.896 151.662 194.914C151.662 194.932 151.662 194.951 151.662 194.969C151.662 195.069 151.712 195.142 151.813 195.188C151.913 195.224 152.031 195.242 152.168 195.242C152.305 195.242 152.423 195.242 152.524 195.242ZM159.35 200.137C158.712 200.137 158.143 199.982 157.641 199.672C157.149 199.353 156.762 198.92 156.479 198.373C156.206 197.817 156.069 197.193 156.069 196.5C156.069 195.798 156.206 195.115 156.479 194.449C156.753 193.784 157.126 193.182 157.6 192.645C158.074 192.107 158.617 191.678 159.227 191.359C159.838 191.04 160.476 190.881 161.141 190.881C161.788 190.881 162.358 191.04 162.85 191.359C163.343 191.669 163.73 192.098 164.012 192.645C164.295 193.191 164.436 193.82 164.436 194.531C164.436 195.215 164.3 195.889 164.026 196.555C163.753 197.22 163.379 197.822 162.905 198.359C162.431 198.897 161.889 199.33 161.278 199.658C160.667 199.977 160.025 200.137 159.35 200.137ZM159.651 199.371C160.043 199.371 160.394 199.248 160.704 199.002C161.014 198.756 161.278 198.432 161.497 198.031C161.725 197.63 161.912 197.193 162.057 196.719C162.203 196.236 162.308 195.762 162.372 195.297C162.445 194.832 162.481 194.417 162.481 194.053C162.481 192.449 161.925 191.646 160.813 191.646C160.449 191.646 160.098 191.774 159.76 192.029C159.432 192.285 159.136 192.645 158.872 193.109C158.617 193.574 158.416 194.117 158.27 194.736C158.124 195.347 158.051 196.017 158.051 196.746C158.051 197.22 158.102 197.658 158.202 198.059C158.302 198.451 158.471 198.77 158.708 199.016C158.945 199.253 159.259 199.371 159.651 199.371ZM165.767 200.137C165.183 200.137 164.432 200.018 163.511 199.781C163.529 199.581 163.543 199.38 163.552 199.18C163.57 198.979 163.579 198.779 163.579 198.578L163.566 197.512C163.566 197.439 163.675 197.402 163.894 197.402C164.058 197.402 164.167 197.439 164.222 197.512C164.222 197.785 164.286 198.068 164.413 198.359C164.541 198.642 164.723 198.879 164.96 199.07C165.206 199.262 165.489 199.357 165.808 199.357C166.045 199.357 166.273 199.289 166.491 199.152C166.71 199.016 166.888 198.824 167.025 198.578C167.161 198.323 167.23 198.027 167.23 197.689C167.23 197.462 167.152 197.247 166.997 197.047C166.842 196.846 166.655 196.655 166.437 196.473C166.218 196.29 166.008 196.122 165.808 195.967C165.553 195.748 165.32 195.543 165.111 195.352C164.901 195.151 164.732 194.932 164.605 194.695C164.477 194.458 164.413 194.176 164.413 193.848C164.413 193.419 164.509 193.023 164.7 192.658C164.901 192.294 165.161 191.979 165.48 191.715C165.799 191.441 166.145 191.227 166.519 191.072C166.902 190.917 167.28 190.84 167.654 190.84C167.973 190.84 168.31 190.885 168.665 190.977C169.021 191.068 169.372 191.15 169.718 191.223C169.49 192.836 169.358 193.643 169.321 193.643H169.13C169.048 193.643 168.975 193.629 168.911 193.602C168.857 193.574 168.829 193.51 168.829 193.41C168.829 193.173 168.779 192.913 168.679 192.631C168.588 192.348 168.442 192.107 168.241 191.906C168.05 191.706 167.808 191.605 167.517 191.605C167.225 191.605 166.984 191.688 166.792 191.852C166.601 192.007 166.46 192.193 166.368 192.412C166.277 192.631 166.232 192.831 166.232 193.014C166.232 193.415 166.428 193.775 166.82 194.094L168.487 195.447C168.67 195.593 168.816 195.771 168.925 195.98C169.043 196.181 169.103 196.482 169.103 196.883C169.103 197.384 169.007 197.835 168.816 198.236C168.624 198.637 168.369 198.979 168.05 199.262C167.731 199.544 167.371 199.763 166.97 199.918C166.578 200.064 166.177 200.137 165.767 200.137Z" fill="white"/>
</svg>
