<svg width="246" height="247" viewBox="0 0 246 247" fill="none" xmlns="http://www.w3.org/2000/svg">
<path d="M114.449 1.06026C95.2244 2.84921 80.6212 7.04399 65.2786 15.1868C54.3107 20.9238 46.7318 26.5374 37.2428 35.7905C27.569 45.1054 20.4214 54.6053 14.3829 66.141C-4.10219 101.056 -4.77998 142.202 12.4112 177.364C47.5945 249.107 140.266 269.156 201.144 218.14C214.885 206.666 225.051 193.773 232.815 177.981C264.486 113.394 234.602 36.0373 167.686 9.38813C151.358 2.84921 130.161 -0.481933 114.449 1.06026ZM143.717 14.8167C185.678 23.2062 219.629 55.1605 229.919 95.9362C232.692 107.04 233.555 115.121 233.185 127.089C232.692 144.67 229.488 157.316 221.663 173.046C215.871 184.705 210.695 191.737 200.713 201.731C191.1 211.354 184.015 216.659 172.985 222.335C155.732 231.218 138.973 234.919 118.885 234.24C106.87 233.87 98.5517 232.39 87.7688 228.812C56.4057 218.325 31.266 194.143 19.189 162.868C12.0415 144.238 10.2546 121.043 14.3829 100.563C15.8617 93.2836 19.8052 82.1798 23.5638 74.5922C29.7255 62.2546 35.9489 53.9268 47.0399 43.2548C63.3684 27.5244 84.0717 17.4075 107.24 13.8913C115.866 12.5959 134.967 13.0277 143.717 14.8167Z" fill="#FAFAFA"/>
<path d="M91.6522 53.0632C90.9744 53.7417 90.4199 54.667 90.4199 55.1605C90.4199 56.456 85.6754 61.1443 81.4238 64.0436C79.3288 65.4007 76.8641 67.4981 75.9399 68.6085C73.4136 71.5695 71.257 76.6279 70.8873 80.3909C70.5792 83.6603 70.5792 83.722 73.1671 85.8194C74.5843 86.9915 76.4944 88.7188 77.3571 89.7674C82.2864 95.3194 87.6471 99.0206 92.4532 100.193C93.932 100.563 94.1785 100.439 93.8704 99.5141C91.2825 90.8778 91.8987 84.7707 95.8422 80.1441C98.3685 77.1831 97.9988 76.4429 93.624 76.0111C91.529 75.826 89.9886 76.0727 88.5098 76.813L86.4148 77.8617L88.3249 76.0727C89.3724 75.0857 90.4815 73.1734 90.9128 71.5695C91.2825 70.0273 92.1452 66.8196 92.7613 64.4754C93.6856 60.8358 94.0553 60.1573 95.0412 60.3423C95.7189 60.4657 97.0129 60.5891 97.9988 60.5891C99.7857 60.6508 99.9705 60.8975 99.0463 62.3163C98.6149 62.9332 98.3069 63.0566 97.9988 62.5631C97.4442 61.8228 94.7331 60.2806 94.425 60.5891C94.3634 60.7125 94.1169 61.3293 93.8704 62.0696C93.4391 63.5501 94.1169 64.2904 97.0129 65.2774C99.2927 66.0176 99.724 65.6475 100.895 62.0079C101.326 60.6508 101.881 59.2936 102.189 58.9235C102.99 58.1216 102.867 58.6768 101.819 61.6995C101.326 63.18 101.018 64.4754 101.141 64.6605C101.757 65.2774 102.62 64.0436 103.359 61.391C103.791 59.8488 104.407 58.43 104.653 58.2449C105.393 57.8131 105.331 58.0599 104.284 61.0826C103.668 62.8098 103.606 63.5501 104.099 63.4267C104.961 63.1183 106.564 58.6768 106.317 57.1346C106.194 56.3326 104.592 55.469 100.34 53.9268C93.624 51.4593 93.2543 51.4593 91.6522 53.0632Z" fill="#FAFAFA"/>
<path d="M144.826 54.4203C141.191 55.7774 139.712 56.641 139.712 57.3813C139.712 58.9852 141.622 64.167 142.238 64.167C142.978 64.167 142.978 64.167 141.869 61.0826C141.376 59.6021 141.068 58.3066 141.253 58.1216C141.376 57.9365 141.684 58.3683 141.93 58.9852C142.177 59.6021 142.916 61.391 143.532 62.9332C145.011 66.2027 145.751 65.339 144.395 62.0079C143.286 59.3553 143.224 59.2319 143.902 59.2319C144.21 59.2319 144.888 60.7741 145.504 62.6248C146.059 64.4754 146.736 66.0176 146.921 66.0176C147.106 66.0176 148.339 65.7092 149.632 65.2773C151.666 64.7221 152.036 64.352 152.036 62.8098C152.036 60.7741 150.742 60.5274 149.016 62.2546C147.722 63.5501 147.106 63.365 147.106 61.7611C147.106 61.1443 147.661 60.7741 148.523 60.7741C149.263 60.7124 150.495 60.5274 151.173 60.2806C152.405 59.8488 152.59 60.2189 153.884 65.5241C155.794 73.2351 156.78 75.5792 158.567 76.5045C159.368 76.9363 159.923 77.4298 159.799 77.5532C159.738 77.6766 158.813 77.3682 157.828 76.813C154.747 75.2091 149.386 75.9493 148.523 78.0467C148.339 78.6019 148.708 79.6506 149.448 80.3909C152.59 83.7837 153.576 90.6927 151.727 97.4167L150.865 100.686L152.96 100.378C157.211 99.6992 162.141 96.7381 166.516 92.2349C168.919 89.8291 171.876 87.0531 173.17 86.0661C175.08 84.6473 175.45 84.0304 175.45 82.1181C175.45 79.774 174.156 75.024 172.985 72.7416C171.691 70.3357 167.255 65.8942 163.743 63.5501C160.046 61.0209 156.657 57.5047 154.993 54.4203C153.638 51.8911 151.666 51.8911 144.826 54.4203Z" fill="#FAFAFA"/>
<path d="M100.772 78.9721C94.7947 82.2415 93.3159 89.5824 96.6432 99.4525C99.4776 108.089 107.919 118.329 117.655 125.053L122.338 128.322L126.836 125.115C132.874 120.858 140.206 113.456 143.657 108.089C149.449 99.2057 151.297 88.472 148.032 82.9201C143.719 75.5793 133.305 76.2578 125.295 84.4623L122.214 87.5467L120.243 85.2026C119.133 83.9071 116.669 81.8097 114.82 80.5143C111.863 78.4786 110.877 78.1701 107.241 77.9234C103.914 77.7383 102.62 77.9851 100.772 78.9721Z" fill="#FAFAFA"/>
<path d="M52.0943 154.91C51.1701 155.28 50.2458 156.205 49.9377 157.007C49.6913 157.809 48.4589 159.105 47.2882 159.907L45.1316 161.387L44.9468 178.29C44.8235 195.624 45.07 197.906 47.0418 195.315C47.7195 194.328 47.9044 191.059 47.9044 178.536C47.9044 169.962 48.1509 162.806 48.4589 162.621C48.767 162.436 49.1367 164.348 49.26 166.877C49.568 173.293 50.4923 174.218 57.1469 174.465C63.247 174.773 65.1571 174.341 65.1571 172.738C65.1571 171.627 64.7258 171.504 59.6732 171.504C52.7721 171.504 52.0943 171.01 52.3408 166.014L52.5257 162.559L65.1571 162.374C77.7886 162.251 79.021 162.004 78.2816 159.968C78.0351 159.351 75.3239 159.166 65.4036 159.166C54.0045 159.166 50.9852 158.796 53.8196 157.686C54.3742 157.501 60.0429 157.316 66.3895 157.316C78.0967 157.316 79.6371 157.007 78.0967 155.157C77.4805 154.416 75.1391 154.231 65.5268 154.293C59.0571 154.293 53.0186 154.601 52.0943 154.91Z" fill="#FAFAFA"/>
<path d="M85.5496 155.033C83.4547 156.082 82.9617 158.364 83.1466 166.877C83.2698 175.637 83.4547 176.439 84.8719 176.439C86.5355 176.439 86.7204 175.267 86.7204 165.89C86.7204 160.585 86.9668 157.316 87.3365 157.316C87.7062 157.316 87.9527 163.978 87.9527 176.069C87.9527 191.737 88.0759 194.945 88.877 195.562C89.3699 195.932 90.0477 196.117 90.4174 195.871C91.4033 195.254 91.28 157.254 90.2942 155.958C89.1234 154.54 87.2133 154.17 85.5496 155.033Z" fill="#FAFAFA"/>
<path d="M96.5814 155.156C96.2117 155.65 96.0269 156.329 96.2734 156.699C96.5198 157.069 103.051 157.316 115.375 157.316C130.656 157.316 134.106 157.192 134.353 156.452C135.154 154.416 133.49 154.231 115.313 154.231C100.34 154.231 97.1976 154.355 96.5814 155.156Z" fill="#FAFAFA"/>
<path d="M176.497 154.601C176.25 154.848 176.066 158.364 176.066 162.374V169.653H168.671H161.216L161.401 175.02L161.586 180.449L168.671 180.757L175.757 181.065L176.066 188.468L176.374 195.87H181.303H186.232L186.54 188.468L186.848 181.065L194.119 180.88L201.328 180.695V175.205V169.715L194.119 169.53L186.848 169.345L186.54 161.942L186.232 154.54L181.611 154.355C179.023 154.293 176.743 154.355 176.497 154.601Z" fill="#FAFAFA"/>
<path d="M96.1481 160.153C95.532 161.819 96.7643 162.189 103.974 162.374L111.059 162.559L111.244 178.906C111.368 195.315 111.552 196.549 113.647 195.747C114.264 195.5 114.448 192.108 114.448 178.783V162.189L112.908 160.708C111.491 159.228 111.059 159.166 103.974 159.166C97.8118 159.166 96.4562 159.351 96.1481 160.153Z" fill="#FAFAFA"/>
<path d="M117.901 160.462L116.299 161.695V178.598C116.299 195.624 116.484 197.166 118.455 195.562C119.195 194.945 119.38 191.799 119.503 178.66L119.688 162.559L126.897 162.374C132.689 162.251 134.106 162.004 134.414 161.264C134.599 160.708 134.661 160.03 134.414 159.721C134.229 159.413 130.84 159.166 126.835 159.166C120.366 159.166 119.38 159.29 117.901 160.462Z" fill="#FAFAFA"/>
<path d="M53.5084 176.439C49.8114 177.302 49.4417 178.104 49.2568 186.802C49.072 193.341 49.1952 194.884 49.9963 195.5C51.7831 196.981 52.2145 195.624 52.2145 188.468C52.2145 184.643 52.3993 181.065 52.5842 180.51C52.8923 179.708 54.0014 179.523 58.3762 179.523C62.6894 179.523 64.0449 179.276 64.846 178.475C65.8318 177.488 65.8318 177.426 64.7843 176.624C63.552 175.76 56.959 175.637 53.5084 176.439Z" fill="#FAFAFA"/>
</svg>
