<svg width="191" height="192" viewBox="0 0 191 192" fill="none" xmlns="http://www.w3.org/2000/svg">
<path d="M89.3076 1.17818C74.3902 2.56631 63.0587 5.82127 51.1534 12.1397C42.6429 16.5913 36.762 20.9472 29.3989 28.1273C21.8924 35.3552 16.3461 42.7267 11.6605 51.6778C-2.68313 78.7705 -3.20906 110.698 10.1305 137.982C37.4313 193.651 109.341 209.208 156.579 169.622C167.242 160.719 175.131 150.715 181.155 138.461C205.73 88.3439 182.541 28.3188 130.617 7.64021C117.947 2.56631 101.5 -0.0184937 89.3076 1.17818ZM112.018 11.8525C144.579 18.3624 170.923 43.1575 178.908 74.7976C181.059 83.4136 181.729 89.6842 181.442 98.9704C181.059 112.612 178.573 122.425 172.501 134.631C168.007 143.678 163.99 149.135 156.245 156.889C148.786 164.357 143.288 168.473 134.729 172.877C121.342 179.77 108.337 182.642 92.7501 182.115C83.4267 181.828 76.972 180.679 68.6049 177.903C44.2685 169.766 24.7611 151.002 15.3899 126.733C9.84367 112.277 8.45712 94.2794 11.6605 78.3876C12.808 72.7393 15.868 64.1232 18.7846 58.2356C23.5658 48.6622 28.3948 42.2002 37.001 33.9192C49.6713 21.7131 65.7362 13.8629 83.7136 11.1345C90.4073 10.1293 105.229 10.4644 112.018 11.8525Z" fill="#141414"/>
<path d="M71.6183 41.5299C71.0924 42.0564 70.6621 42.7744 70.6621 43.1574C70.6621 44.1626 66.9805 47.8005 63.6815 50.0502C62.0559 51.1033 60.1434 52.7308 59.4262 53.5924C57.4659 55.89 55.7925 59.8151 55.5056 62.735C55.2665 65.272 55.2665 65.3198 57.2747 66.9473C58.3743 67.8568 59.8565 69.1971 60.5259 70.0108C64.3509 74.3189 68.5105 77.1909 72.2399 78.1004C73.3874 78.3876 73.5786 78.2918 73.3395 77.5738C71.3314 70.8724 71.8096 66.1336 74.8695 62.5435C76.8298 60.2459 76.543 59.6715 73.1483 59.3364C71.5227 59.1928 70.3274 59.3843 69.1799 59.9587L67.5543 60.7725L69.0364 59.3843C69.8493 58.6184 70.7099 57.1346 71.0446 55.89C71.3314 54.6933 72.0008 52.2042 72.4789 50.3853C73.1961 47.5611 73.483 47.0346 74.248 47.1782C74.7739 47.2739 75.778 47.3697 76.543 47.3697C77.9295 47.4175 78.0729 47.609 77.3558 48.7099C77.0211 49.1886 76.782 49.2844 76.543 48.9014C76.1126 48.327 74.0089 47.1303 73.7699 47.3697C73.722 47.4654 73.5308 47.9441 73.3395 48.5185C73.0049 49.6673 73.5308 50.2417 75.778 51.0076C77.547 51.582 77.8817 51.2948 78.7901 48.4706C79.1248 47.4175 79.5551 46.3645 79.7942 46.0773C80.4157 45.455 80.3201 45.8858 79.5073 48.2313C79.1248 49.3801 78.8858 50.3853 78.9814 50.5289C79.4595 51.0076 80.1289 50.0502 80.7026 47.9919C81.0373 46.7953 81.5154 45.6943 81.7067 45.5507C82.2804 45.2156 82.2326 45.4071 81.4198 47.7526C80.9417 49.0929 80.8939 49.6673 81.2764 49.5716C81.9457 49.3322 83.1889 45.8858 82.9976 44.6891C82.902 44.0668 81.6589 43.3967 78.3598 42.2C73.1483 40.2853 72.8614 40.2853 71.6183 41.5299Z" fill="#141414"/>
<path d="M112.879 42.583C110.058 43.6361 108.911 44.3062 108.911 44.8806C108.911 46.1252 110.393 50.146 110.871 50.146C111.445 50.146 111.445 50.146 110.584 47.7526C110.202 46.6038 109.963 45.5986 110.106 45.455C110.202 45.3114 110.441 45.6465 110.632 46.1252C110.823 46.6038 111.397 47.992 111.875 49.1887C113.022 51.7256 113.596 51.0555 112.544 48.4706C111.684 46.4124 111.636 46.3166 112.162 46.3166C112.401 46.3166 112.927 47.5133 113.405 48.9493C113.835 50.3853 114.361 51.582 114.505 51.582C114.648 51.582 115.604 51.3427 116.608 51.0076C118.186 50.5768 118.473 50.2896 118.473 49.0929C118.473 47.5133 117.469 47.3218 116.13 48.6621C115.126 49.6673 114.648 49.5237 114.648 48.2792C114.648 47.8005 115.078 47.5133 115.748 47.5133C116.322 47.4654 117.278 47.3218 117.804 47.1304C118.76 46.7953 118.903 47.0825 119.907 51.1991C121.39 57.1824 122.155 59.0014 123.541 59.7194C124.163 60.0544 124.593 60.4374 124.497 60.5331C124.45 60.6288 123.732 60.3895 122.967 59.9587C120.577 58.7142 116.417 59.2886 115.748 60.916C115.604 61.3469 115.891 62.1606 116.465 62.735C118.903 65.3677 119.668 70.7288 118.234 75.9463L117.565 78.4832L119.19 78.2439C122.489 77.7173 126.314 75.4197 129.709 71.9254C131.574 70.0586 133.869 67.9046 134.873 67.1388C136.355 66.0378 136.642 65.5591 136.642 64.0753C136.642 62.2563 135.638 58.5706 134.729 56.7995C133.725 54.9327 130.283 51.4863 127.557 49.6673C124.689 47.7048 122.059 44.9764 120.768 42.583C119.716 40.6205 118.186 40.6205 112.879 42.583Z" fill="#141414"/>
<path d="M78.6947 61.6342C74.0569 64.1712 72.9094 69.8673 75.4913 77.5261C77.6906 84.2274 84.2409 92.1733 91.7952 97.3908L95.4289 99.9278L98.9192 97.4387C103.605 94.1359 109.294 88.3919 111.972 84.2274C116.466 77.3346 117.901 69.0057 115.367 64.6977C112.02 59.0015 103.94 59.5281 97.7239 65.8944L95.3333 68.2877L93.8033 66.4688C92.9427 65.4636 91.0302 63.8361 89.5959 62.8309C87.3009 61.2513 86.5359 61.0119 83.715 60.8205C81.1331 60.6769 80.1291 60.8683 78.6947 61.6342Z" fill="#141414"/>
<path d="M40.9229 120.558C40.2057 120.846 39.4885 121.564 39.2494 122.186C39.0582 122.808 38.102 123.813 37.1935 124.436L35.5201 125.584L35.3767 138.7C35.281 152.151 35.4723 153.922 37.0023 151.911C37.5282 151.145 37.6716 148.608 37.6716 138.891C37.6716 132.238 37.8629 126.685 38.102 126.542C38.341 126.398 38.6279 127.882 38.7235 129.845C38.9626 134.823 39.6798 135.541 44.8435 135.732C49.5769 135.972 51.0591 135.636 51.0591 134.392C51.0591 133.53 50.7244 133.435 46.8038 133.435C41.4488 133.435 40.9229 133.052 41.1141 129.174L41.2576 126.494L51.0591 126.35C60.8606 126.255 61.8168 126.063 61.2431 124.483C61.0518 124.005 58.9481 123.861 51.2503 123.861C42.4051 123.861 40.0623 123.574 42.2616 122.712C42.6919 122.569 47.0906 122.425 52.0153 122.425C61.0996 122.425 62.2949 122.186 61.0996 120.75C60.6215 120.175 58.8046 120.032 51.3459 120.08C46.3257 120.08 41.6401 120.319 40.9229 120.558Z" fill="#141414"/>
<path d="M66.8829 120.654C65.2573 121.468 64.8748 123.239 65.0182 129.845C65.1138 136.642 65.2573 137.264 66.357 137.264C67.6479 137.264 67.7913 136.354 67.7913 129.079C67.7913 124.962 67.9826 122.425 68.2694 122.425C68.5563 122.425 68.7476 127.595 68.7476 136.977C68.7476 149.135 68.8432 151.624 69.4648 152.103C69.8472 152.39 70.3732 152.534 70.6601 152.342C71.4251 151.863 71.3294 122.377 70.5644 121.372C69.656 120.271 68.1738 119.984 66.8829 120.654Z" fill="#141414"/>
<path d="M75.4436 120.75C75.1567 121.133 75.0133 121.659 75.2045 121.946C75.3958 122.234 80.4639 122.425 90.0263 122.425C101.884 122.425 104.561 122.329 104.752 121.755C105.374 120.175 104.083 120.032 89.9785 120.032C78.3601 120.032 75.9217 120.127 75.4436 120.75Z" fill="#141414"/>
<path d="M137.454 120.319C137.263 120.511 137.12 123.239 137.12 126.35V131.999H131.382H125.597L125.74 136.163L125.884 140.375L131.382 140.615L136.881 140.854L137.12 146.598L137.359 152.342H141.184H145.009L145.248 146.598L145.487 140.854L151.129 140.71L156.723 140.567V136.307V132.046L151.129 131.903L145.487 131.759L145.248 126.015L145.009 120.271L141.423 120.128C139.415 120.08 137.646 120.128 137.454 120.319Z" fill="#141414"/>
<path d="M75.107 124.627C74.6289 125.919 75.5851 126.207 81.1792 126.35L86.6776 126.494L86.821 139.179C86.9166 151.911 87.0601 152.869 88.6857 152.246C89.1638 152.055 89.3073 149.422 89.3073 139.083V126.207L88.112 125.058C87.0123 123.909 86.6776 123.861 81.1792 123.861C76.398 123.861 75.3461 124.005 75.107 124.627Z" fill="#141414"/>
<path d="M91.9863 124.866L90.7432 125.824V138.939C90.7432 152.151 90.8866 153.347 92.4166 152.103C92.9903 151.624 93.1338 149.183 93.2294 138.987L93.3728 126.494L98.9669 126.35C103.461 126.255 104.561 126.063 104.8 125.489C104.943 125.058 104.991 124.531 104.8 124.292C104.657 124.053 102.027 123.861 98.919 123.861C93.8988 123.861 93.1338 123.957 91.9863 124.866Z" fill="#141414"/>
<path d="M42.0202 137.264C39.1515 137.934 38.8646 138.556 38.7212 145.306C38.5778 150.38 38.6734 151.576 39.2949 152.055C40.6815 153.204 41.0162 152.151 41.0162 146.598C41.0162 143.63 41.1596 140.854 41.3031 140.423C41.5421 139.801 42.4027 139.657 45.7974 139.657C49.1443 139.657 50.1961 139.466 50.8177 138.844C51.5827 138.078 51.5827 138.03 50.7699 137.408C49.8136 136.737 44.6977 136.642 42.0202 137.264Z" fill="#141414"/>
</svg>
